<?xml version="1.0" encoding="utf-8"?>
<!-- Generator: Adobe Illustrator 24.1.0, SVG Export Plug-In . SVG Version: 6.00 Build 0)  -->
<svg version="1.1" xmlns="http://www.w3.org/2000/svg" xmlns:xlink="http://www.w3.org/1999/xlink" x="0px" y="0px"
	 viewBox="0 0 1500 1500" style="enable-background:new 0 0 1500 1500;" xml:space="preserve">
<style type="text/css">
	.st0{fill:#003462;}
	.st1{fill:#EA6F19;}
	.st2{fill:#FB8B24;}
	.st3{fill:#E0592A;}
	.st4{fill:#FFFFFF;}
</style>
<g id="Typeface">
	<path class="st0" d="M704.8,768.8l8-9.6c0.1-0.1,0.2-0.1,0.3,0c5.4,4.2,11.2,6.3,17.3,6.3c4.1,0,6.3-1.4,6.3-3.7v-0.2
		c0-2.3-1.8-3.5-9.2-5.2c-11.5-2.6-20.4-5.9-20.4-16.9v-0.2c0-10,8-17.3,20.9-17.3c9.1,0,16.2,2.4,22.1,7c0.1,0.1,0.1,0.2,0,0.3
		l-7.2,10.2c-0.1,0.1-0.2,0.1-0.3,0.1c-4.9-3.5-10.2-5.2-14.9-5.2c-3.6,0-5.4,1.5-5.4,3.5v0.2c0,2.5,1.9,3.6,9.4,5.2
		c12.4,2.7,20.1,6.7,20.1,16.8v0.2c0,11-8.7,17.6-21.8,17.6c-9.5,0-18.4-3-25.1-8.8C704.7,769.1,704.7,768.9,704.8,768.8z
		 M754.3,723h15.3c0.1,0,0.2,0.1,0.2,0.2l9.1,30.4c0.1,0.2,0.4,0.2,0.5,0l10.1-30.5c0-0.1,0.1-0.2,0.2-0.2h12.5
		c0.1,0,0.2,0.1,0.2,0.2l10.1,30.5c0.1,0.2,0.4,0.2,0.5,0l9.1-30.4c0-0.1,0.1-0.2,0.2-0.2h15c0.2,0,0.3,0.2,0.2,0.3l-17.9,53.9
		c0,0.1-0.1,0.2-0.2,0.2h-12.7c-0.1,0-0.2-0.1-0.2-0.2l-10.5-30.3c-0.1-0.2-0.4-0.2-0.5,0l-10.6,30.3c0,0.1-0.1,0.2-0.2,0.2h-12.7
		c-0.1,0-0.2-0.1-0.2-0.2L754,723.3C754,723.1,754.1,723,754.3,723z M844.4,723h14.5c0.1,0,0.2,0.1,0.2,0.2v53.6
		c0,0.1-0.1,0.2-0.2,0.2h-14.5c-0.1,0-0.2-0.1-0.2-0.2v-53.6C844.2,723.1,844.3,723,844.4,723z M867.7,723h42.8
		c0.1,0,0.2,0.1,0.2,0.2v12.6c0,0.1-0.1,0.2-0.2,0.2h-27.8c-0.1,0-0.2,0.1-0.2,0.2v8.7c0,0.1,0.1,0.2,0.2,0.2h25.1
		c0.1,0,0.2,0.1,0.2,0.2v11.9c0,0.1-0.1,0.2-0.2,0.2h-25.1c-0.1,0-0.2,0.1-0.2,0.2v18.8c0,0.1-0.1,0.2-0.2,0.2h-14.5
		c-0.1,0-0.2-0.1-0.2-0.2v-53.6C867.5,723.1,867.6,723,867.7,723z M930.6,736.1h-15.7c-0.1,0-0.2-0.1-0.2-0.2v-12.6
		c0-0.1,0.1-0.2,0.2-0.2h46.8c0.1,0,0.2,0.1,0.2,0.2v12.6c0,0.1-0.1,0.2-0.2,0.2H946c-0.1,0-0.2,0.1-0.2,0.2v40.4
		c0,0.1-0.1,0.2-0.2,0.2h-14.5c-0.1,0-0.2-0.1-0.2-0.2v-40.4C930.8,736.2,930.7,736.1,930.6,736.1z"/>
</g>
<g id="Logo_Mark">
	<g>
		<g>
			<path class="st1" d="M677,767.7v8.2c0,2.5-1.3,4.9-3.5,6.1L590,830.3v-60.1l0,0l35-20.2l4.8,2.7l36.6,21.1
				C671.1,776.6,677,773.2,677,767.7z"/>
		</g>
		<path class="st2" d="M677,724.1v8.2c0-5.4-5.9-8.9-10.6-6.1l-36.7,21.1L625,750l-35-20.2l0,0v-60.1l83.5,48.2
			C675.7,719.2,677,721.5,677,724.1z"/>
		<path class="st3" d="M677,732.3v35.5c0,5.4-5.9,8.8-10.6,6.1l-36.6-21.1L625,750l4.7-2.7l36.7-21.1
			C671.1,723.4,677,726.8,677,732.3z"/>
		<path class="st1" d="M590,699.7v60l-11.9-6.9l-5-2.9l-30.3-17.5c-2.9-1.7-4.8-4.8-4.8-8.2v-54.6L590,699.7L590,699.7z"/>
		<polygon class="st4" points="625,750 590,770.2 590,729.8 		"/>
		<path class="st3" d="M590,740.2v60l0,0l-52,30v-54.6c0-3.4,1.8-6.5,4.7-8.2l30.4-17.5l5-2.9L590,740.2z"/>
	</g>
</g>
</svg>
